# xmcd
#
# Track frame offsets: 
#        150
#        19206
#        36182
#        60040
#        77691
#        92296
#        116224
#        134134
#        155680
#        173914
#        192732
#
# Disc length: 2956 seconds
#
# Revision: 0
# Processed by: cddbd v1.5.2PL0 Copyright (c) Steve Scherf et al.
# Submitted via: ExactAudioCopy v1.0b3
#
DISCID=910b8a0b
DTITLE=Reverend Gary Davis - Live at Gerde's Folk City February, 1962 
DTITLE=CD 2
DYEAR=2009
DGENRE=Blues
TTITLE0=I Want To Be Saved
TTITLE1=Just A Closer Walk With Thee
TTITLE2=Death Don't Have No Mercy 
TTITLE3=Lord I Won't Go Back In Sin 
TTITLE4=Candyman
TTITLE5=Buck Dance
TTITLE6=Samson and Delilah
TTITLE7=Working On The Building
TTITLE8=I'll Fly Away
TTITLE9=Sun Goin' Down
TTITLE10=Fox Chase
EXTD=
EXTT0=
EXTT1=
EXTT2=
EXTT3=
EXTT4=
EXTT5=
EXTT6=
EXTT7=
EXTT8=
EXTT9=
EXTT10=
PLAYORDER=
